<svg width="80" height="80" viewBox="0 0 80 80" fill="none" xmlns="http://www.w3.org/2000/svg">
<path fill-rule="evenodd" clip-rule="evenodd" d="M39.9202 11.519C24.2836 11.519 11.519 24.2836 11.519 39.9202C11.519 55.5567 24.2836 68.3213 39.9202 68.3213C55.5567 68.3213 68.3213 55.5567 68.3213 39.9202V11.519H39.9202ZM39.9202 58.5883C29.7085 58.5883 21.252 50.2913 21.252 39.9202C21.252 29.7085 29.549 21.252 39.9202 21.252C50.1318 21.252 58.5883 29.549 58.5883 39.9202C58.5883 50.2913 50.2913 58.5883 39.9202 58.5883Z" fill="#323232"/>
<path fill-rule="evenodd" clip-rule="evenodd" d="M39.9203 29.23C45.8239 29.23 50.6106 34.0167 50.6106 39.9203C50.6106 45.8239 45.8239 50.7701 39.9203 50.7701C34.0167 50.7701 29.23 45.9834 29.23 39.9203C29.23 34.0167 34.0167 29.23 39.9203 29.23Z" fill="#6532FD"/>
</svg>
