<svg width="80" height="80" viewBox="0 0 80 80" fill="none" xmlns="http://www.w3.org/2000/svg">
<path d="M40 26.5175C40 33.9587 33.9587 40 26.5174 40C19.0762 40 13.0349 33.9587 13.0349 26.5175V13.0349L26.5174 13.0349C33.9587 13.0349 40 19.0762 40 26.5175Z" fill="#6532FD"/>
<path d="M53.4828 40C46.0415 40 40.0002 33.9587 40.0002 26.5174C40.0002 19.0762 46.0415 13.0349 53.4828 13.0349H66.9653V26.5174C66.9653 33.9587 60.924 40 53.4828 40Z" fill="#323232"/>
<path d="M40 53.4825C40 46.0413 46.0413 40 53.4826 40C60.9238 40 66.9651 46.0413 66.9651 53.4825V66.9651H53.4826C46.0413 66.9651 40 60.9238 40 53.4825Z" fill="#323232"/>
<path d="M26.5172 40C33.9585 40 39.9998 46.0413 39.9998 53.4826C39.9998 60.9238 33.9585 66.9651 26.5172 66.9651H13.0347V53.4826C13.0347 46.0413 19.076 40 26.5172 40Z" fill="#323232"/>
</svg>
